PathFileType  4	(X/Y/Z) C:\Users\antoi\Documents\MyRepositories\mobilecap\ResultsAnalysis
DataRate	CameraRate	NumFrames	NumMarkers	Units	OrigDataRate	OrigDataStartFrame	OrigNumFrames
100.0	100.0	7	51	mm	100.0	186	247
Frame#	Time	r_knee			r_shank_antsup			r_ankle			r_calc			r_5meta			r_toe			L_knee			L_shank_antsup			L_ankle			L_calc			L_5meta			L_toe			r_sh2			r_sh3			r_sh4			L_sh2			L_sh3			r_thigh1			r_thigh2			r_thigh3			r_thigh4			r_thigh5			L_thigh1			L_thigh2			L_thigh3			L_thigh4			r.ASIS			r.PSIS			L.ASIS			L.PSIS			C7			R_Shoulder			L_Shoulder			R_Sternum			L_Sternum			R_humerus			R_elbow_med			R_elbow_lat			R_forearm			R_wrist_radius			R_wrist_ulna			L_humerus			L_elbow_med			L_elbow_lat			L_forearm			L_wrist_radius			L_wrist_ulna			R_HJC			L_HJC			R_HJC_reg			L_HJC_reg			
		X1	Y1	Z1	X2	Y2	Z2	X3	Y3	Z3	X4	Y4	Z4	X5	Y5	Z5	X6	Y6	Z6	X7	Y7	Z7	X8	Y8	Z8	X9	Y9	Z9	X10	Y10	Z10	X11	Y11	Z11	X12	Y12	Z12	X13	Y13	Z13	X14	Y14	Z14	X15	Y15	Z15	X16	Y16	Z16	X17	Y17	Z17	X18	Y18	Z18	X19	Y19	Z19	X20	Y20	Z20	X21	Y21	Z21	X22	Y22	Z22	X23	Y23	Z23	X24	Y24	Z24	X25	Y25	Z25	X26	Y26	Z26	X27	Y27	Z27	X28	Y28	Z28	X29	Y29	Z29	X30	Y30	Z30	X31	Y31	Z31	X32	Y32	Z32	X33	Y33	Z33	X34	Y34	Z34	X35	Y35	Z35	X36	Y36	Z36	X37	Y37	Z37	X38	Y38	Z38	X39	Y39	Z39	X40	Y40	Z40	X41	Y41	Z41	X42	Y42	Z42	X43	Y43	Z43	X44	Y44	Z44	X45	Y45	Z45	X46	Y46	Z46	X47	Y47	Z47	X48	Y48	Z48	X49	Y49	Z49	X50	Y50	Z50	X51	Y51	Z51	

186	1.85000000	-258.52522	698.96259	-323.58939	-232.52524	556.84898	-291.37440	-288.81992	199.52721	-232.43146	-339.07968	203.87084	-302.75569	-206.22298	68.29334	-202.17292	-152.73667	76.81354	-244.58402	-244.80619	673.55324	-825.14197	-224.31297	472.00159	-844.97651	-352.66341	187.68787	-859.55652	-395.02651	178.31456	-786.16327	-274.24619	45.44892	-917.18862	-209.83613	63.25252	-877.45176	-232.17375	444.40457	-272.05421	-304.09263	558.48688	-268.40777	-307.12633	450.25463	-239.72652	-302.39655	497.25324	-878.15449	-327.55955	379.71471	-870.23604	-238.34220	1001.56783	-347.26571	-213.89172	892.96669	-325.82843	-272.45684	857.53827	-319.98441	-340.80406	970.22212	-387.35617	-319.73502	858.76732	-350.95042	-193.85489	978.76039	-794.67751	-183.55823	846.06237	-815.66189	-304.17693	972.20854	-791.23688	-290.99748	838.11216	-821.46150	-186.08164	1260.50358	-450.20477	-361.33275	1284.13192	-549.91310	-179.57417	1234.46818	-716.02352	-358.03386	1278.21596	-641.48866	-243.21122	1767.78711	-620.73536	-164.85293	1808.64794	-509.81710	-166.29289	1789.71189	-729.64211	-95.52519	1702.27955	-582.24186	-94.84780	1696.38345	-632.52593	-151.08455	1840.47795	-278.58700	-173.15999	1779.40099	-121.87803	-209.94400	1857.07378	-149.91933	-53.07065	1879.20228	-286.03658	4.53171	1881.92399	-340.49196	24.30428	1896.60872	-321.38499	-75.19681	1767.29130	-972.65214	-108.71307	1676.35892	-1081.28158	-109.50435	1763.15810	-1082.05159	66.56921	1808.31997	-990.45150	118.98131	1812.21870	-948.92243	128.12686	1826.61418	-976.65652	-261.81232	1162.89452	-480.77975	-259.36953	1147.53796	-677.64350	-253.77676	1172.67378	-485.10095	-247.43577	1161.30871	-660.96540	
187	1.86000000	-277.96157	723.72295	-327.11840	-246.09188	584.67047	-294.00015	-279.59945	225.67991	-230.16230	-330.43124	230.76582	-300.45642	-197.51629	91.44499	-204.75237	-142.74382	101.18589	-245.55193	-263.81769	696.21741	-819.84314	-233.61561	497.94663	-845.40738	-339.54453	206.27707	-869.30826	-380.29417	203.53338	-795.07278	-270.46035	54.10832	-918.66069	-204.00460	69.64779	-882.02021	-238.71957	472.54179	-273.01883	-318.49016	582.09794	-272.49243	-314.35279	473.72989	-242.25968	-313.36240	518.81814	-877.43334	-330.57609	399.68967	-872.86217	-238.69347	1023.68790	-348.75222	-222.48074	913.65483	-327.46400	-283.71461	882.17952	-324.00294	-342.86999	1000.53813	-389.94794	-330.09126	887.29893	-355.28229	-189.67639	998.21796	-793.51974	-189.26662	865.04994	-812.97312	-300.00357	1000.21794	-790.80479	-297.09137	864.70550	-817.76136	-175.79036	1288.93460	-451.36808	-348.87308	1308.97468	-551.64361	-165.68071	1262.13335	-713.99323	-343.98160	1302.83894	-643.00521	-247.43985	1793.72149	-621.41399	-172.15354	1832.85292	-509.55367	-171.85967	1813.69824	-732.56144	-98.76124	1729.72354	-581.59654	-98.11074	1723.82410	-633.61881	-166.55818	1856.87558	-274.51063	-202.52338	1792.83804	-121.94016	-230.54670	1874.07098	-149.60479	-63.29491	1885.84121	-274.92125	-4.84279	1883.72421	-328.07202	14.85370	1896.96428	-307.97796	-95.80708	1783.43323	-981.37808	-142.83453	1692.09637	-1083.93160	-137.01124	1778.63230	-1087.25490	49.40599	1812.11511	-1013.26668	106.09779	1812.90606	-975.71892	113.70560	1826.52296	-1005.02661	-248.76203	1189.91801	-480.81493	-243.64763	1173.76737	-677.56361	-241.31501	1200.48082	-486.59083	-232.00083	1188.81436	-660.30519	
188	1.87000000	-287.87423	748.27389	-329.44937	-255.19666	610.78258	-296.45540	-279.51831	248.35824	-231.72795	-329.41047	252.44459	-302.79002	-190.96717	116.71792	-208.91991	-135.53619	131.83743	-246.91800	-279.53953	720.04311	-813.80557	-239.47287	525.93811	-843.42196	-325.19182	230.26187	-877.98615	-364.11359	232.41865	-802.86381	-265.97960	71.01886	-921.28711	-197.42939	82.81411	-887.67646	-244.78026	498.86594	-274.71739	-327.41121	606.52663	-275.47700	-321.18243	497.58831	-245.90361	-320.26478	543.38011	-874.99244	-330.10462	422.94598	-874.79750	-238.47352	1045.68765	-350.31999	-226.83692	934.88336	-330.06529	-289.46137	905.72102	-328.35611	-343.00386	1027.18646	-392.82792	-335.20802	913.34702	-359.56239	-185.68040	1016.18941	-790.76835	-194.88685	883.11728	-807.19119	-295.62846	1026.03587	-789.62368	-302.43503	890.02968	-812.16136	-167.79811	1314.25869	-452.44268	-338.51459	1333.66101	-553.57672	-152.83251	1287.44433	-712.35914	-330.91592	1327.01284	-644.81935	-251.44682	1816.88151	-622.28262	-178.99063	1855.38128	-508.89949	-176.85612	1834.81461	-735.92165	-102.49275	1754.54228	-581.34855	-101.44429	1748.58467	-634.85149	-181.07903	1869.86148	-271.33819	-230.62189	1803.92556	-123.97714	-249.51330	1887.77957	-150.15393	-74.58420	1888.52483	-264.77724	-13.43243	1882.28472	-314.76886	5.51454	1894.53632	-292.32818	-115.46875	1796.78506	-988.37296	-173.81905	1706.19699	-1085.09232	-161.59782	1791.56732	-1091.17910	32.13493	1812.89883	-1034.83851	92.70198	1810.19480	-1000.98562	97.12735	1822.12839	-1031.39661	-239.10271	1214.95550	-481.34994	-230.65080	1198.60808	-677.96619	-233.03062	1226.78806	-488.84649	-218.74000	1214.28729	-660.51472	
189	1.88000000	-290.05822	771.32717	-331.59573	-260.34606	633.93771	-297.73370	-286.98044	267.41092	-238.12055	-331.19752	272.63662	-312.32928	-193.51315	138.50873	-213.67247	-136.40896	159.18704	-245.45538	-288.54097	744.26409	-809.87693	-241.46810	553.43478	-839.74643	-315.35297	256.35136	-881.47794	-352.62597	260.05554	-805.75236	-261.38494	94.87213	-923.63124	-191.65413	103.80704	-892.03317	-250.64530	522.24972	-275.88246	-332.17912	629.60939	-278.73788	-328.13019	519.91761	-251.00815	-322.11722	568.97944	-872.74107	-326.97660	447.78971	-876.24835	-237.37727	1068.33897	-351.63520	-226.03054	957.19438	-332.35668	-288.77187	928.46500	-331.31014	-341.01537	1050.15554	-396.02567	-334.27180	936.46477	-362.65981	-182.32438	1034.21411	-786.60816	-198.53585	901.41452	-800.03085	-291.74926	1049.61781	-788.56853	-305.29597	913.62161	-807.06720	-162.46792	1336.48776	-453.63460	-331.31240	1357.54441	-556.03907	-141.89062	1310.53283	-711.31238	-320.72079	1350.79078	-647.65022	-254.86909	1837.48825	-623.03923	-184.16176	1876.23339	-507.79087	-180.41407	1853.42779	-739.73555	-105.93975	1777.70300	-582.02356	-104.39472	1771.49268	-636.32368	-194.62346	1880.45973	-268.45490	-256.99090	1812.72528	-127.52310	-266.93307	1898.37046	-150.84803	-85.96398	1888.27790	-254.72979	-21.93638	1878.06418	-301.63305	-3.98084	1889.09472	-276.54955	-133.45163	1807.08178	-994.07511	-201.29140	1717.96790	-1085.23996	-183.73675	1801.68852	-1094.08163	14.80554	1810.98191	-1054.31657	78.12817	1804.58624	-1024.71266	79.18532	1814.52470	-1054.74057	-233.49068	1237.80210	-482.90309	-221.18111	1222.03825	-679.36304	-228.21830	1250.48948	-491.97802	-208.59494	1237.96310	-661.86009	
190	1.89000000	-287.11381	792.63598	-334.02069	-261.37486	654.63922	-298.68604	-296.90925	286.61992	-248.41192	-331.60552	295.23322	-327.19156	-206.84529	156.73492	-217.56970	-146.30575	178.74272	-240.73709	-289.69285	767.59540	-808.91659	-241.13837	577.93287	-836.38880	-313.59739	280.04604	-878.40658	-349.61758	282.63446	-802.34833	-257.92278	120.00450	-923.13632	-187.86438	129.29261	-892.79130	-254.24940	543.27964	-277.44564	-333.58134	650.61197	-284.02694	-332.81313	540.33594	-257.95820	-320.87598	592.58300	-872.07825	-324.23425	471.33104	-875.85375	-235.38388	1091.11429	-352.24384	-222.46084	980.19031	-332.86297	-284.61172	950.54347	-332.57701	-337.63056	1071.23513	-399.11830	-329.94859	957.65175	-364.50318	-179.15936	1054.43643	-782.78959	-197.62365	921.69613	-795.06379	-288.20680	1071.90227	-788.83099	-303.61916	935.73232	-805.46739	-159.81772	1357.01257	-454.31664	-327.49648	1379.90379	-559.21789	-133.95917	1331.68705	-710.24386	-314.66619	1374.04418	-651.41115	-257.06806	1856.58566	-623.72636	-186.71787	1895.57286	-505.42956	-181.79615	1870.26300	-744.59366	-107.19935	1799.59165	-583.27021	-105.57331	1793.35684	-637.74987	-206.65694	1889.27201	-265.55094	-281.43715	1818.96172	-132.36971	-282.75673	1906.05069	-151.35515	-97.03009	1885.73067	-244.77802	-30.57576	1871.19426	-289.64627	-13.73669	1880.78926	-261.64145	-148.92832	1814.23894	-999.07776	-225.61286	1726.69178	-1084.40702	-203.73226	1808.93530	-1096.34060	-2.46041	1806.57426	-1071.55259	62.57349	1796.56886	-1046.44034	61.69232	1805.16894	-1075.88780	-231.71407	1259.17427	-484.83346	-215.29613	1244.01261	-681.04150	-225.38444	1271.00251	-494.85306	-201.91144	1260.27614	-663.49101	
191	1.90000000	-280.42933	812.71646	-336.11267	-258.03849	673.48880	-300.64832	-305.90424	307.60085	-259.67852	-332.60009	317.79260	-341.81517	-224.42629	175.11274	-219.84530	-160.53205	193.87428	-237.01182	-285.34840	789.25783	-809.82853	-239.67254	599.04946	-835.18380	-316.98496	300.45346	-871.49742	-351.13249	302.98312	-794.89691	-258.96462	141.32802	-917.44673	-188.29276	152.41504	-889.02990	-254.03506	562.10472	-281.01222	-331.00751	670.18099	-290.22587	-333.48569	559.55164	-265.85199	-319.22978	613.35871	-871.45878	-323.70923	492.35809	-872.42109	-233.97381	1113.09016	-351.94843	-219.31483	1003.18319	-331.28329	-280.85531	971.71147	-333.24826	-334.51345	1091.38806	-401.85620	-325.45591	977.69459	-366.43909	-175.36454	1076.99585	-781.93865	-192.38022	944.04105	-794.68412	-284.29251	1093.86030	-790.91218	-298.02453	957.32195	-808.28248	-159.59326	1377.40259	-453.65373	-326.45627	1400.66878	-562.79620	-129.69856	1351.28573	-708.31440	-312.46004	1396.44910	-655.22556	-257.56017	1875.60006	-624.48365	-187.10570	1913.60601	-501.72981	-180.92407	1886.24997	-750.86619	-106.09181	1820.29131	-584.40568	-104.66079	1814.42972	-638.87338	-217.05164	1896.55286	-262.27777	-303.65612	1822.76399	-138.48070	-296.98710	1910.81904	-151.62335	-108.07302	1880.85225	-235.34006	-39.48825	1861.95586	-278.38201	-23.84917	1870.33661	-247.04661	-161.60280	1818.49407	-1004.03609	-246.62109	1732.31122	-1082.13935	-221.30181	1812.99736	-1098.20683	-19.29874	1799.55537	-1086.72052	47.05474	1786.14793	-1065.42661	45.39178	1794.26434	-1095.69007	-232.93325	1280.08021	-485.90518	-212.46741	1264.54815	-681.70030	-223.84714	1289.15159	-496.04502	-198.39620	1281.48225	-664.05884	
192	1.91000000	-271.20781	831.90410	-337.35567	-251.48522	690.76089	-303.64659	-312.72663	329.19246	-268.88370	-337.41554	337.47892	-351.87452	-238.53841	195.61677	-221.41177	-173.36016	209.13753	-238.62297	-278.54319	809.53285	-811.39475	-236.63596	617.94687	-835.92033	-320.41852	319.90662	-864.14076	-351.76783	325.73078	-786.75312	-266.45512	158.50713	-906.63324	-194.55512	169.24501	-880.89014	-250.97935	578.87936	-286.24112	-324.90271	689.07824	-295.54479	-331.10038	578.09739	-273.76926	-317.22982	632.81776	-869.14606	-323.84765	512.04692	-867.60328	-234.43079	1133.76746	-351.26351	-217.68047	1024.72725	-329.02682	-278.64486	991.47071	-334.34726	-332.62060	1109.97230	-404.74909	-321.73200	996.32677	-369.63400	-171.35899	1100.01863	-785.17861	-186.05156	966.73710	-798.24907	-280.35428	1115.28361	-793.74301	-291.79765	978.67610	-813.00162	-161.51505	1398.23531	-451.66573	-327.35016	1420.20375	-565.82382	-128.91598	1370.01475	-705.77048	-312.98917	1417.76782	-658.05530	-256.08211	1895.59503	-625.55482	-186.47417	1930.31672	-497.99413	-178.65292	1901.98786	-757.53088	-104.27290	1840.11823	-585.39953	-103.01355	1834.41712	-639.97587	-226.34512	1901.62546	-258.55831	-323.47307	1824.82506	-145.78515	-309.84282	1912.80385	-152.03855	-118.73187	1873.48577	-226.21742	-48.65561	1850.70245	-267.31476	-34.24442	1857.94168	-233.05880	-171.93142	1820.18469	-1008.81916	-263.83371	1735.71105	-1077.52199	-236.15911	1813.77601	-1099.25780	-34.98780	1789.74783	-1099.49799	32.24481	1773.16615	-1081.46498	30.11955	1780.69866	-1113.02132	-236.00860	1300.87761	-485.64460	-212.07246	1284.02482	-680.93561	-223.62753	1306.18775	-495.37788	-197.46951	1301.75150	-663.40084	
